# xmcd CD database file
#
# Track frame offsets:
#	183
#	10993
#	23343
#	32918
#	44088
#	53930
#	64068
#	73318
#	84268
#	97843
#	112468
#	125518
#	136178
#	147193
#	159243
#	171743
#
# Disc length: 2457 seconds
#
# Revision: 0
# Processed by: cddbd v1.5.1PL2 Copyright (c) Steve Scherf et al.
# Submitted via: CDex 1.50
#
DISCID=e3099710
DTITLE=Various Artist - Country Music vol. 2
DYEAR=1995
DGENRE=Country
TTITLE0=Buck Owens/Act Naturally
TTITLE1=Johnny Cash/Understand Your Man
TTITLE2=Roger Miller/Chug-a-Lug
TTITLE3=Buck Owens/My Heart Skips A Beat
TTITLE4=George Jones/The Race Is On
TTITLE5=Ned Miller/From A Jack To A King
TTITLE6=Marty Robbins/Ruby Ann
TTITLE7=Dave Dudley/SixDays On The Road
TTITLE8=Claude King/Wolverton Mountain
TTITLE9=Jimmy Dean/P.T. 109
TTITLE10=Johnny Horton/North To Alaska
TTITLE11=Floyd Cramer/San Antonio Rose
TTITLE12=Leroy Van Dyke/Walk On By
TTITLE13=Buck Owens/Foolin' Around
TTITLE14=Don Gibson/Just One Time
TTITLE15=Ray Price/One More Time
EXTD=YEAR: 1995
EXTT0=
EXTT1=
EXTT2=
EXTT3=
EXTT4=
EXTT5=
EXTT6=
EXTT7=
EXTT8=
EXTT9=
EXTT10=
EXTT11=
EXTT12=
EXTT13=
EXTT14=
EXTT15=
PLAYORDER=
